PathFileType	4	(X/Y/Z)	9_coords_data.trc
DataRate	CameraRate	NumFrames	NumMarkers	Units	OrigDataRate	OrigDataStartFrame	OrigNumFrames
30.0	30.0	6	21	m	30.0	29	47
Frame#	Time	THUMB_TIP	THUMB_IP	THUMB_MCP	THUMB_CMC	INDEX_TIP	INDEX_DIP	INDEX_PIP	INDEX_MCP	MIDDLE_TIP	MIDDLE_DIP	MIDDLE_PIP	MIDDLE_MCP	RING_TIP	RING_DIP	RING_PIP	RING_MCP	PINKY_TIP	PINKY_DIP	PINKY_PIP	PINKY_MCP	WRIST
X1	Y1	Z1	X2	Y2	Z2	X3	Y3	Z3	X4	Y4	Z4	X5	Y5	Z5	X6	Y6	Z6	X7	Y7	Z7	X8	Y8	Z8	X9	Y9	Z9	X10	Y10	Z10	X11	Y11	Z11	X12	Y12	Z12	X13	Y13	Z13	X14	Y14	Z14	X15	Y15	Z15	X16	Y16	Z16	X17	Y17	Z17	X18	Y18	Z18	X19	Y19	Z19	X20	Y20	Z20	X21	Y21	Z21
28	0.9333333333333333	0.08726640319824219	-0.02092639923095703	0.9925869750976563	0.06487010192871094	-0.02545319938659668	1.0082899780273438	0.04159489822387695	-0.032375301361083984	1.0258499755859376	0.017916299819946288	-0.01875309944152832	1.0391099853515624	0.08277760314941406	-0.03339929962158203	0.939822998046875	0.06321960067749023	-0.04040449905395508	0.9461090087890625	0.041916999816894535	-0.04659479904174805	0.954114013671875	0.01594379997253418	-0.04764059829711914	0.9849569702148437	0.07433309936523437	-0.011382399559020996	0.9159420166015625	0.05450360107421875	-0.016905000686645508	0.9275540161132813	0.028411800384521485	-0.022908300399780274	0.94227099609375	0.00484218978881836	-0.027141199111938477	0.979010009765625	0.06854180145263672	0.01368120002746582	0.9289340209960938	0.04779800033569336	0.010100099563598633	0.9377529907226563	0.021504400253295898	0.003969530105590821	0.9496929931640625	0.00027969300746917704	-0.004562849998474121	0.9822349853515625	0.048466899871826175	0.03555120086669922	0.9618400268554688	0.030608299255371094	0.03553110122680664	0.9655339965820312	0.012718299865722656	0.031784099578857423	0.9727730102539063	-0.0009973090291023252	0.017987600326538088	0.9939860229492188	-0.016644599914550782	-0.016000699996948243	1.0625899658203124
29	0.9666666666666667	0.0869989013671875	-0.015566699981689453	0.993791015625	0.06436599731445312	-0.02147159957885742	1.00927001953125	0.04204280090332031	-0.030127700805664064	1.02625	0.018057100296020506	-0.01699449920654297	1.0392099609375	0.08355349731445312	-0.031472799301147464	0.9416790161132812	0.06410269927978515	-0.038641998291015625	0.947697998046875	0.04252450180053711	-0.04502239990234375	0.955114013671875	0.015761199951171874	-0.046304901123046874	0.985447021484375	0.07402269744873047	-0.010536800384521485	0.9164819946289062	0.05433060073852539	-0.015970199584960938	0.9281510009765624	0.028171899795532227	-0.021956199645996093	0.9427410278320313	0.00469021987915039	-0.025992300033569334	0.9793049926757813	0.06828630065917969	0.014144800186157226	0.92956298828125	0.04746120071411133	0.010770299911499023	0.9381790161132812	0.02110309982299805	0.004809929847717285	0.9498820190429688	-0.000101765997707843	-0.003413909912109375	0.9827739868164063	0.048133201599121093	0.03596419906616211	0.9623410034179688	0.030395700454711915	0.036230300903320314	0.9657139892578125	0.012381899833679199	0.03272909927368164	0.97285400390625	-0.0013792599439620972	0.019087600708007812	0.9943599853515624	-0.017003799438476564	-0.014905400276184082	1.063
30	1.0	0.08667169952392578	-0.014409799575805664	0.9947780151367187	0.06435910034179687	-0.020499099731445314	1.0100800170898439	0.04148559951782226	-0.029380699157714844	1.0268599853515625	0.017812799453735352	-0.016222099304199218	1.0395799560546874	0.08326560211181641	-0.031118499755859376	0.9426729736328125	0.06372449874877929	-0.038203701019287106	0.9484669799804688	0.042099498748779295	-0.04449169921875	0.9557540283203125	0.015073800086975097	-0.04560219955444336	0.9857139892578125	0.07370980072021484	-0.010467100143432616	0.9170689697265625	0.053886699676513675	-0.01577810001373291	0.9285599975585938	0.02763240051269531	-0.02143320083618164	0.943114013671875	0.004141089916229248	-0.025198999404907226	0.979739990234375	0.06859169769287109	0.014110400199890136	0.9307520141601563	0.04752890014648437	0.011013899803161621	0.9388330078125	0.020935699462890624	0.005383250236511231	0.950291015625	-0.000313475012779235	-0.00263575005531311	0.98314599609375	0.0482333984375	0.03565359878540039	0.96314697265625	0.030529399871826172	0.03638520050048828	0.9661069946289063	0.01235789966583252	0.03324959945678711	0.9730859985351562	-0.0015771299600601191	0.019868099212646484	0.9946610107421875	-0.01698889923095703	-0.014053099632263184	1.06318994140625
31	1.0333333333333334	0.08644439697265625	-0.014810299873352051	0.9951599731445312	0.06384099960327148	-0.020624700546264647	1.010280029296875	0.04094409942626953	-0.02908799934387207	1.0268499755859375	0.01761750030517578	-0.015551699638366698	1.0398599853515624	0.08286730194091797	-0.030965599060058593	0.9435289916992188	0.06335139846801757	-0.0379630012512207	0.9491539916992188	0.041535099029541014	-0.044221698760986326	0.9561539916992188	0.014395899772644043	-0.04520330047607422	0.9864869995117187	0.0734822006225586	-0.010590700149536133	0.917760009765625	0.05353960037231445	-0.015793600082397462	0.9291190185546875	0.027181800842285157	-0.021250499725341796	0.9434929809570313	0.0035354099273681642	-0.0248528995513916	0.9802319946289062	0.06881700134277344	0.014003999710083008	0.9320150146484375	0.047673900604248046	0.01100409984588623	0.9396010131835938	0.02086639976501465	0.00551915979385376	0.95068798828125	-0.0009603310227394101	-0.002339669942855835	0.9835640258789062	0.0480625	0.03513019943237305	0.9637369995117188	0.03027440071105957	0.03615409851074219	0.9663629760742187	0.01195359992980957	0.03326620101928711	0.9730360107421875	-0.0022730000019073483	0.020316400527954102	0.99497998046875	-0.01746310043334961	-0.013319499969482422	1.063760009765625
32	1.0666666666666667	0.085618896484375	-0.015632599830627442	0.9944970092773437	0.06322980117797851	-0.021018699645996095	1.009989990234375	0.04016680145263672	-0.029144100189208984	1.02706005859375	0.016681800842285155	-0.015747300148010256	1.0404000244140625	0.08218289947509766	-0.03058370018005371	0.9440339965820312	0.06261920166015625	-0.037635398864746095	0.9495139770507812	0.04082040023803711	-0.04398419952392578	0.9564320068359375	0.013850099563598632	-0.045102699279785156	0.9864710083007813	0.07300659942626953	-0.010365599632263184	0.9182639770507812	0.053027099609375	-0.015546699523925782	0.9295289916992188	0.026622800827026366	-0.02103120040893555	0.9437880249023437	0.0029425098896026613	-0.024602500915527344	0.980343994140625	0.06852999877929687	0.014403800010681152	0.9329199829101562	0.04748749923706055	0.011354499816894532	0.9404190063476563	0.02040959930419922	0.005890779972076416	0.9510989990234375	-0.0014218000173568722	-0.0020243499279022207	0.9836829833984375	0.04728139877319336	0.03499390029907227	0.9639119873046875	0.02954680061340332	0.03611890029907226	0.9663560180664063	0.01114050006866455	0.03332469940185547	0.9728720092773437	-0.002919239997863769	0.020639900207519532	0.9949509887695313	-0.01789299964904785	-0.012868300437927246	1.064
33	1.1	0.0849542999267578	-0.016281700134277342	0.9938259887695312	0.06239530181884766	-0.021236200332641602	1.0096099853515625	0.03973880004882813	-0.029084299087524416	1.02706005859375	0.016261999130249023	-0.015096799850463867	1.0403800048828125	0.08110880279541016	-0.03022319984436035	0.9440789794921876	0.06135559844970703	-0.037320201873779296	0.9494080200195313	0.039776798248291015	-0.04369340133666992	0.9563980102539062	0.012821900367736816	-0.04494929885864258	0.9865750122070313	0.07174569702148438	-0.010071599960327148	0.9181190185546875	0.05190399932861328	-0.01526729965209961	0.92935400390625	0.02550309944152832	-0.020754499435424803	0.9436820068359375	0.001988720059394836	-0.02433679962158203	0.9805339965820312	0.06828489685058593	0.014644399642944336	0.9336209716796875	0.046921600341796876	0.011687800407409668	0.9409240112304688	0.01966950035095215	0.0062276401519775395	0.9513839721679688	-0.002318530082702636	-0.0017846200466156	0.9840280151367188	0.046804500579833985	0.03518259811401367	0.96452197265625	0.029073699951171875	0.03639659881591797	0.9668519897460938	0.010583200454711915	0.033689701080322265	0.9732379760742188	-0.003670739889144897	0.020818099975585938	0.9950900268554688	-0.018143299102783204	-0.012557000160217284	1.06422998046875
